<?xml version="1.0" standalone="no"?><!DOCTYPE svg PUBLIC "-//W3C//DTD SVG 1.1//EN" "http://www.w3.org/Graphics/SVG/1.1/DTD/svg11.dtd"><svg t="1524454957381" class="icon" style="" viewBox="0 0 1024 1024" version="1.1" xmlns="http://www.w3.org/2000/svg" p-id="1621" xmlns:xlink="http://www.w3.org/1999/xlink" width="200" height="200"><defs><style type="text/css"></style></defs><path d="M380.8 243.2l230.4 630.4c9.6 25.6 44.8 28.8 57.6 3.2l182.4-332.8h108.8c19.2 0 32-12.8 32-32s-12.8-32-32-32h-128c-12.8 0-22.4 6.4-28.8 16l-156.8 291.2-233.6-636.8c-9.6-25.6-48-28.8-60.8-3.2l-147.2 332.8h-140.8c-19.2 0-32 12.8-32 32s12.8 32 32 32h160c12.8 0 22.4-6.4 28.8-19.2l128-281.6z" p-id="1622"></path></svg>