<?xml version="1.0" standalone="no"?><!DOCTYPE svg PUBLIC "-//W3C//DTD SVG 1.1//EN" "http://www.w3.org/Graphics/SVG/1.1/DTD/svg11.dtd"><svg t="1524130224474" class="icon" style="" viewBox="0 0 1024 1024" version="1.1" xmlns="http://www.w3.org/2000/svg" p-id="1417" xmlns:xlink="http://www.w3.org/1999/xlink" width="200" height="200"><defs><style type="text/css"></style></defs><path d="M811.880905 414.733723c3.836375 1.644453 7.509021 3.288906 11.177574 4.933359L823.058478 174.163645 710.612477 80.600713 336.394517 214.123752l0 33.380248 339.845105-109.352547 0 255.205403c7.845689-0.656963 15.685237-0.98749 23.692608-0.98749C738.807632 392.369366 776.34455 399.931598 811.880905 414.733723L811.880905 414.733723zM811.880905 414.733723" p-id="1418"></path><path d="M214.600613 643.956358l178.185238-34.038234 0-86.332251-178.185238 44.728714L214.600613 643.956358zM214.600613 643.956358" p-id="1419"></path><path d="M214.600613 903.270335l178.185238 0 0-90.604554-178.185238 12.33084L214.600613 903.270335zM214.600613 903.270335" p-id="1420"></path><path d="M214.600613 773.203l178.185238-16.442484 0-86.166475-178.185238 28.612665L214.600613 773.203zM214.600613 773.203" p-id="1421"></path><path d="M214.600613 512.243547l178.185238-46.864354 0-89.617064-178.185238 57.550741L214.600613 512.243547zM214.600613 512.243547" p-id="1422"></path><path d="M444.171172 805.761534 444.171172 902.282844l82.582857 0c-10.6782-7.893784-20.687158-16.60826-30.195719-25.979698C475.368708 855.41849 457.851753 831.741231 444.171172 805.761534L444.171172 805.761534zM444.171172 805.761534" p-id="1423"></path><path d="M587.983555 414.733723l2.503007-0.98749L590.486562 289.269219l-100.603279-58.372455L110.995977 361.291556l-0.167822 543.79003 49.885154 0L160.713308 387.601782l283.457864-89.286536 0 247.636007c13.512758-25.979698 31.197536-49.65798 52.387138-70.541613C522.917654 449.428919 553.61684 428.874791 587.983555 414.733723L587.983555 414.733723zM587.983555 414.733723" p-id="1424"></path><path d="M798.699698 650.204665" p-id="1425"></path><path d="M699.933253 449.920106c-126.631072 0-229.234915 101.130282-229.234915 225.937822 0 124.803447 102.603843 225.932706 229.234915 225.932706 126.632095 0 229.234915-101.129258 229.234915-225.932706C929.168168 551.050388 826.565349 449.920106 699.933253 449.920106zM625.725134 814.809607l-59.360969 0L566.364165 610.025571l59.360969 0L625.725134 814.809607zM729.622436 814.809607l-59.364039 0 0-277.909497 59.364039 0L729.622436 814.809607zM833.501318 814.809607l-59.360969 0L774.140349 683.163311l59.360969 0L833.501318 814.809607z" p-id="1426"></path></svg>