<?xml version="1.0" standalone="no"?><!DOCTYPE svg PUBLIC "-//W3C//DTD SVG 1.1//EN" "http://www.w3.org/Graphics/SVG/1.1/DTD/svg11.dtd"><svg t="1524569337766" class="icon" style="" viewBox="0 0 1024 1024" version="1.1" xmlns="http://www.w3.org/2000/svg" p-id="1245" xmlns:xlink="http://www.w3.org/1999/xlink" width="200" height="200"><defs><style type="text/css"></style></defs><path d="M941.12 539.991l-414.3 192.822a31.609 31.609 0 0 1-28.407 0.677L83.177 539.916c-15.636-7.29-22.639-25.36-15.642-40.361s25.346-21.255 40.982-13.965l403.421 188.067 403.823-187.945c15.648-7.283 34.011-1.036 41.013 13.953s-0.005 33.043-15.654 40.326z m18.264-205.661a28.53 28.53 0 0 1-6.288 16.122q-0.448 0.556-0.921 1.088a32.143 32.143 0 0 1-11.055 8.473l-414.3 192.822a31.609 31.609 0 0 1-28.407 0.677L83.177 359.938A32.561 32.561 0 0 1 78.3 357.1a28.968 28.968 0 0 1-11.074-12.428c-7-15.015 0.006-33.1 15.647-40.4L498.25 110.535a31.608 31.608 0 0 1 28.417 0.677L941.114 304.2a32.165 32.165 0 0 1 11.577 9.094l0.04 0.047c0.167 0.21 0.341 0.416 0.5 0.63a28.473 28.473 0 0 1 6.15 15.931c0.008 0.092 0.013 0.182 0.02 0.274 0.039 0.648 0.061 1.3 0.056 1.943s-0.017 1.3-0.056 1.945c-0.001 0.089-0.01 0.177-0.017 0.266z m-447.6-163.911L165.237 332.054l346.7 161.625 347.116-161.552zM108.517 665.568l403.421 188.067L915.761 665.69c15.648-7.283 34.011-1.036 41.013 13.953s0 33.043-15.654 40.326l-414.3 192.822a31.606 31.606 0 0 1-28.407 0.676L83.177 719.893c-15.636-7.289-22.639-25.359-15.642-40.361s25.346-21.253 40.982-13.964z" fill="#ffffff" p-id="1246"></path></svg>