<?xml version="1.0" standalone="no"?><!DOCTYPE svg PUBLIC "-//W3C//DTD SVG 1.1//EN" "http://www.w3.org/Graphics/SVG/1.1/DTD/svg11.dtd"><svg t="1524128541283" class="icon" style="" viewBox="0 0 1024 1024" version="1.1" xmlns="http://www.w3.org/2000/svg" p-id="3988" xmlns:xlink="http://www.w3.org/1999/xlink" width="200" height="200"><defs><style type="text/css"></style></defs><path d="M257.13777778 948.90666667H111.50222222c-20.09770667 0-36.40888889-16.27477333-36.40888889-36.40888889V293.54666667c0-20.09770667 16.31118222-36.40888889 36.40888889-36.40888889h145.63555556c20.09770667 0 36.40888889 16.31118222 36.40888889 36.40888889v618.95111111c0 20.13411555-16.31118222 36.40888889-36.40888889 36.40888889z m-109.22666667-72.81777778h72.81777778V329.95555555h-72.81777778v546.13333334zM584.81777778 948.90666667H439.18222222c-20.09770667 0-36.40888889-16.27477333-36.40888889-36.40888889V512c0-20.09770667 16.31118222-36.40888889 36.40888889-36.40888889h145.63555556c20.13411555 0 36.40888889 16.31118222 36.40888889 36.40888889v400.49777778c0 20.13411555-16.27477333 36.40888889-36.40888889 36.40888889z m-109.22666667-72.81777778h72.81777778V548.40888889h-72.81777778v327.68zM912.49777778 948.90666667H766.86222222c-20.13411555 0-36.40888889-16.27477333-36.40888889-36.40888889V111.50222222c0-20.09770667 16.27477333-36.40888889 36.40888889-36.40888889h145.63555556c20.13411555 0 36.40888889 16.31118222 36.40888889 36.40888889v800.99555556c0 20.13411555-16.27477333 36.40888889-36.40888889 36.40888889z m-109.22666667-72.81777778h72.81777778V147.91111111h-72.81777778v728.17777778z" p-id="3989"></path></svg>